<?xml version="1.0" standalone="no"?><!DOCTYPE svg PUBLIC "-//W3C//DTD SVG 1.1//EN" "http://www.w3.org/Graphics/SVG/1.1/DTD/svg11.dtd"><svg t="1627547031591" class="icon" viewBox="0 0 1024 1024" version="1.1" xmlns="http://www.w3.org/2000/svg" p-id="13545" xmlns:xlink="http://www.w3.org/1999/xlink" width="200" height="200"><defs><style type="text/css">@font-face { font-family: feedback-iconfont; src: url("//at.alicdn.com/t/font_1031158_1uhr8ri0pk5.eot?#iefix") format("embedded-opentype"), url("//at.alicdn.com/t/font_1031158_1uhr8ri0pk5.woff2") format("woff2"), url("//at.alicdn.com/t/font_1031158_1uhr8ri0pk5.woff") format("woff"), url("//at.alicdn.com/t/font_1031158_1uhr8ri0pk5.ttf") format("truetype"), url("//at.alicdn.com/t/font_1031158_1uhr8ri0pk5.svg#iconfont") format("svg"); }
</style></defs><path d="M805.534 77c44.486 0 80.548 36.029 80.548 80.472v558.71c0 44.443-36.062 80.472-80.548 80.472H190.712c-30.82 0-54.876 22.177-54.876 48.283 0 25.845 23.577 47.84 53.953 48.277l0.923 0.006h695.37c16.523 0 29.918 13.383 29.918 29.89 0 16.272-13.015 29.507-29.212 29.882l-0.706 0.008h-695.37C127.872 953 76 905.179 76 844.937c0-2.001 0.057-3.989 0.17-5.961a31.452 31.452 0 0 1-0.162-2.53L76 835.74V157.472C76 113.03 112.063 77 156.548 77h648.986z m0 59.78H156.548c-11.235 0-20.38 8.936-20.704 20.082l-0.008 0.61v558.71c0 11.223 8.945 20.36 20.101 20.683l0.61 0.009h648.987c11.235 0 20.38-8.937 20.704-20.083l0.009-0.61V157.472c0-11.224-8.945-20.36-20.102-20.684l-0.61-0.008zM745.7 483.96c16.523 0 29.917 13.383 29.917 29.89 0 16.272-13.014 29.507-29.211 29.882l-0.706 0.008H216.384c-16.524 0-29.918-13.382-29.918-29.89 0-16.271 13.014-29.506 29.211-29.881l0.707-0.008h529.315z m0-170.141c16.523 0 29.917 13.382 29.917 29.89 0 16.271-13.014 29.506-29.211 29.881l-0.706 0.008H216.384c-16.524 0-29.918-13.382-29.918-29.89 0-16.271 13.014-29.506 29.211-29.88l0.707-0.01h529.315z" fill="#333333" p-id="13546"></path></svg>