<?xml version="1.0" standalone="no"?><!DOCTYPE svg PUBLIC "-//W3C//DTD SVG 1.1//EN" "http://www.w3.org/Graphics/SVG/1.1/DTD/svg11.dtd"><svg t="1632061757783" class="icon" viewBox="0 0 1024 1024" version="1.1" xmlns="http://www.w3.org/2000/svg" p-id="2664" xmlns:xlink="http://www.w3.org/1999/xlink" width="200" height="200"><defs><style type="text/css"></style></defs><path d="M520.533333 661.333333 411.733333 926.72C443.733333 934.4 477.44 938.666667 512 938.666667 547.84 938.666667 582.826667 934.4 616.106667 925.866667M879.36 301.226667C887.466667 339.626667 885.76 386.133333 869.973333 437.333333 828.586667 570.453333 725.333333 810.666667 686.933333 901.546667 835.413333 835.413333 938.666667 687.786667 938.666667 516.266667 938.666667 437.76 917.333333 363.946667 879.36 301.226667M183.893333 368.64C183.893333 368.64 162.986667 341.333333 141.226667 341.333333L118.613333 341.333333C97.28 389.546667 85.333333 453.12 85.333333 512 85.333333 686.506667 192 836.693333 346.453333 900.693333M133.546667 304.64C204.8 171.946667 347.306667 85.333333 512 85.333333 618.666667 85.333333 715.946667 130.56 790.613333 194.56 769.28 190.293333 746.666667 194.986667 722.346667 208.64 667.306667 240.213333 649.386667 328.96 720.64 373.76 765.44 401.493333 781.226667 471.04 779.52 513.706667 778.24 555.946667 676.266667 751.36 676.266667 751.36L576 410.88C576 410.88 573.44 386.986667 573.44 380.16 573.44 371.626667 576 360.96 581.546667 354.56 585.386667 350.72 590.933333 341.333333 597.333333 341.333333L644.693333 341.333333 644.693333 304.64 388.693333 304.64 388.693333 341.333333 396.8 341.333333C405.333333 341.333333 413.44 353.706667 421.12 361.386667 430.506667 371.2 442.453333 407.466667 456.533333 445.013333L493.653333 567.466667 413.44 752.213333 325.546667 382.72C325.546667 382.72 328.106667 357.12 333.653333 352.853333 337.066667 349.866667 341.333333 341.333333 348.586667 341.333333L350.72 341.333333 350.72 304.64 133.546667 304.64Z" p-id="2665"></path></svg>