<?xml version="1.0" standalone="no"?><!DOCTYPE svg PUBLIC "-//W3C//DTD SVG 1.1//EN" "http://www.w3.org/Graphics/SVG/1.1/DTD/svg11.dtd"><svg t="1627605539646" class="icon" viewBox="0 0 1024 1024" version="1.1" xmlns="http://www.w3.org/2000/svg" p-id="6610" xmlns:xlink="http://www.w3.org/1999/xlink" width="200" height="200"><defs><style type="text/css">@font-face { font-family: feedback-iconfont; src: url("//at.alicdn.com/t/font_1031158_1uhr8ri0pk5.eot?#iefix") format("embedded-opentype"), url("//at.alicdn.com/t/font_1031158_1uhr8ri0pk5.woff2") format("woff2"), url("//at.alicdn.com/t/font_1031158_1uhr8ri0pk5.woff") format("woff"), url("//at.alicdn.com/t/font_1031158_1uhr8ri0pk5.ttf") format("truetype"), url("//at.alicdn.com/t/font_1031158_1uhr8ri0pk5.svg#iconfont") format("svg"); }
</style></defs><path d="M825.3 933H197.1c-73.5 0-133.2-59.8-133.2-133.2V231.5c0-73.5 59.8-133.2 133.2-133.2h628.2c73.5 0 133.2 59.8 133.2 133.2v568.3c0 73.4-59.8 133.2-133.2 133.2zM197.1 187.7c-24.1 0-43.8 19.6-43.8 43.8v568.3c0 24.1 19.6 43.8 43.8 43.8h628.2c24.1 0 43.8-19.6 43.8-43.8V231.5c0-24.1-19.6-43.8-43.8-43.8H197.1z" fill="#1296db" p-id="6611"></path><path d="M246.1 286m-45.6 0a45.6 45.6 0 1 0 91.2 0 45.6 45.6 0 1 0-91.2 0Z" fill="#1296db" p-id="6612"></path><path d="M368.5 286m-45.6 0a45.6 45.6 0 1 0 91.2 0 45.6 45.6 0 1 0-91.2 0Z" fill="#1296db" p-id="6613"></path><path d="M490.2 286m-45.6 0a45.6 45.6 0 1 0 91.2 0 45.6 45.6 0 1 0-91.2 0Z" fill="#1296db" p-id="6614"></path><path d="M913.8 463.7H108.6c-24.7 0-44.7-20-44.7-44.7 0-24.7 20-44.7 44.7-44.7h805.2c24.7 0 44.7 20 44.7 44.7 0 24.6-20 44.7-44.7 44.7z" fill="#1296db" p-id="6615"></path></svg>